G04*
G04 #@! TF.GenerationSoftware,Altium Limited,Altium Designer,21.5.1 (32)*
G04*
G04 Layer_Physical_Order=2*
G04 Layer_Color=16711680*
%FSLAX25Y25*%
%MOIN*%
G70*
G04*
G04 #@! TF.SameCoordinates,B44AFF20-6257-4841-829A-698601589143*
G04*
G04*
G04 #@! TF.FilePolarity,Positive*
G04*
G01*
G75*
%ADD12C,0.01000*%
%ADD15C,0.01600*%
%ADD16C,0.05551*%
%ADD17C,0.06142*%
%ADD18C,0.05000*%
%ADD19C,0.02600*%
%ADD20R,0.03858X0.03386*%
%ADD21R,0.03150X0.02756*%
%ADD22R,0.02362X0.02756*%
%ADD23R,0.02362X0.02756*%
%ADD24R,0.01968X0.01181*%
%ADD25R,0.03386X0.03858*%
%ADD26R,0.04331X0.03937*%
%ADD27R,0.03937X0.04331*%
G36*
X129921Y195627D02*
X130623Y195534D01*
X131278Y195263D01*
X131840Y194832D01*
X132271Y194270D01*
X132542Y193616D01*
X132635Y192913D01*
X132638D01*
Y3937D01*
X132635D01*
X132542Y3235D01*
X132271Y2580D01*
X131840Y2018D01*
X131278Y1587D01*
X130623Y1316D01*
X129921Y1224D01*
Y1220D01*
X3937D01*
Y1224D01*
X3235Y1316D01*
X2580Y1587D01*
X2018Y2018D01*
X1587Y2580D01*
X1316Y3235D01*
X1224Y3937D01*
X1220D01*
X1220Y3937D01*
Y192913D01*
X1224D01*
X1316Y193616D01*
X1587Y194270D01*
X2018Y194832D01*
X2580Y195263D01*
X3235Y195534D01*
X3937Y195627D01*
Y195630D01*
X129921D01*
Y195627D01*
D02*
G37*
%LPC*%
G36*
X117465Y193126D02*
X117429D01*
Y189555D01*
X121000D01*
Y189591D01*
X120723Y190626D01*
X120187Y191555D01*
X119429Y192313D01*
X118500Y192849D01*
X117465Y193126D01*
D02*
G37*
G36*
X116429D02*
X116393D01*
X115358Y192849D01*
X114430Y192313D01*
X113672Y191555D01*
X113136Y190626D01*
X112858Y189591D01*
Y189555D01*
X116429D01*
Y193126D01*
D02*
G37*
G36*
X121000Y188555D02*
X117429D01*
Y184984D01*
X117465D01*
X118500Y185262D01*
X119429Y185798D01*
X120187Y186556D01*
X120723Y187484D01*
X121000Y188519D01*
Y188555D01*
D02*
G37*
G36*
X116429D02*
X112858D01*
Y188519D01*
X113136Y187484D01*
X113672Y186556D01*
X114430Y185798D01*
X115358Y185262D01*
X116393Y184984D01*
X116429D01*
Y188555D01*
D02*
G37*
G36*
X117465Y183126D02*
X116393D01*
X115358Y182849D01*
X114430Y182313D01*
X113672Y181555D01*
X113136Y180626D01*
X112858Y179591D01*
Y178519D01*
X113136Y177484D01*
X113672Y176556D01*
X114430Y175798D01*
X115358Y175262D01*
X116393Y174984D01*
X117465D01*
X118500Y175262D01*
X119429Y175798D01*
X120187Y176556D01*
X120723Y177484D01*
X121000Y178519D01*
Y179591D01*
X120723Y180626D01*
X120187Y181555D01*
X119429Y182313D01*
X118500Y182849D01*
X117465Y183126D01*
D02*
G37*
G36*
X17465D02*
X16393D01*
X15358Y182849D01*
X14430Y182313D01*
X13672Y181555D01*
X13136Y180626D01*
X12858Y179591D01*
Y178519D01*
X13136Y177484D01*
X13672Y176556D01*
X14430Y175798D01*
X15358Y175262D01*
X16393Y174984D01*
X17465D01*
X18500Y175262D01*
X19429Y175798D01*
X20187Y176556D01*
X20723Y177484D01*
X21000Y178519D01*
Y179591D01*
X20723Y180626D01*
X20187Y181555D01*
X19429Y182313D01*
X18500Y182849D01*
X17465Y183126D01*
D02*
G37*
G36*
Y193126D02*
X16393D01*
X15358Y192849D01*
X14430Y192313D01*
X13672Y191555D01*
X13136Y190626D01*
X12858Y189591D01*
Y188519D01*
X13136Y187484D01*
X13672Y186556D01*
X14430Y185798D01*
X15358Y185262D01*
X16393Y184984D01*
X17465D01*
X18500Y185262D01*
X19429Y185798D01*
X20187Y186556D01*
X20570Y187220D01*
X51326D01*
X63125Y175421D01*
Y162654D01*
X62032D01*
Y157268D01*
X67890D01*
Y158125D01*
X68724D01*
Y157268D01*
X74583D01*
Y162654D01*
X68724D01*
Y161796D01*
X67890D01*
Y162654D01*
X66796D01*
Y176181D01*
X66656Y176883D01*
X66258Y177479D01*
X56979Y186758D01*
X57171Y187220D01*
X77901D01*
X90039Y175082D01*
Y170457D01*
X89782Y170201D01*
X89432Y169355D01*
Y168440D01*
X89782Y167595D01*
X90429Y166948D01*
X91275Y166598D01*
X92190D01*
X93035Y166948D01*
X93682Y167595D01*
X94032Y168440D01*
Y169355D01*
X93709Y170135D01*
Y175842D01*
X93570Y176545D01*
X93172Y177140D01*
X79959Y190353D01*
X79364Y190751D01*
X78661Y190890D01*
X20570D01*
X20187Y191555D01*
X19429Y192313D01*
X18500Y192849D01*
X17465Y193126D01*
D02*
G37*
G36*
X117465Y173126D02*
X116393D01*
X115358Y172849D01*
X114430Y172313D01*
X113672Y171555D01*
X113136Y170626D01*
X113125Y170584D01*
X102520D01*
X101934Y170468D01*
X101438Y170137D01*
X86768Y155466D01*
X74583D01*
Y156630D01*
X68724D01*
Y151244D01*
X70124D01*
Y148967D01*
X69704Y148547D01*
X69353Y147702D01*
Y146787D01*
X69704Y145941D01*
X70351Y145294D01*
X71196Y144944D01*
X72111D01*
X72956Y145294D01*
X73603Y145941D01*
X73953Y146787D01*
Y147702D01*
X73603Y148547D01*
X73183Y148967D01*
Y151244D01*
X74583D01*
Y152408D01*
X87402D01*
X87987Y152524D01*
X88483Y152856D01*
X103153Y167526D01*
X113125D01*
X113136Y167484D01*
X113672Y166556D01*
X114430Y165798D01*
X115358Y165262D01*
X116393Y164984D01*
X117465D01*
X118500Y165262D01*
X119429Y165798D01*
X120187Y166556D01*
X120723Y167484D01*
X121000Y168519D01*
Y169591D01*
X120723Y170626D01*
X120187Y171555D01*
X119429Y172313D01*
X118500Y172849D01*
X117465Y173126D01*
D02*
G37*
G36*
X17465D02*
X16393D01*
X15358Y172849D01*
X14430Y172313D01*
X13672Y171555D01*
X13136Y170626D01*
X12858Y169591D01*
Y168519D01*
X13136Y167484D01*
X13672Y166556D01*
X14430Y165798D01*
X15358Y165262D01*
X16393Y164984D01*
X17465D01*
X18500Y165262D01*
X19429Y165798D01*
X20187Y166556D01*
X20723Y167484D01*
X21000Y168519D01*
Y169591D01*
X20723Y170626D01*
X20187Y171555D01*
X19429Y172313D01*
X18500Y172849D01*
X17465Y173126D01*
D02*
G37*
G36*
X117465Y163126D02*
X116393D01*
X115358Y162849D01*
X114430Y162313D01*
X113672Y161555D01*
X113136Y160626D01*
X112858Y159591D01*
Y158519D01*
X113136Y157484D01*
X113672Y156555D01*
X114430Y155798D01*
X115358Y155262D01*
X116393Y154984D01*
X117465D01*
X118500Y155262D01*
X119429Y155798D01*
X120187Y156555D01*
X120723Y157484D01*
X121000Y158519D01*
Y159591D01*
X120723Y160626D01*
X120187Y161555D01*
X119429Y162313D01*
X118500Y162849D01*
X117465Y163126D01*
D02*
G37*
G36*
X17465D02*
X16393D01*
X15358Y162849D01*
X14430Y162313D01*
X13672Y161555D01*
X13136Y160626D01*
X12858Y159591D01*
Y158519D01*
X13136Y157484D01*
X13672Y156555D01*
X14430Y155798D01*
X15358Y155262D01*
X16393Y154984D01*
X17465D01*
X18500Y155262D01*
X19429Y155798D01*
X20187Y156555D01*
X20723Y157484D01*
X21000Y158519D01*
Y159591D01*
X20723Y160626D01*
X20187Y161555D01*
X19429Y162313D01*
X18500Y162849D01*
X17465Y163126D01*
D02*
G37*
G36*
X117465Y153126D02*
X116393D01*
X115358Y152849D01*
X114430Y152313D01*
X113672Y151555D01*
X113136Y150626D01*
X112858Y149591D01*
Y148519D01*
X113136Y147484D01*
X113672Y146555D01*
X114430Y145798D01*
X115358Y145262D01*
X116393Y144984D01*
X117465D01*
X118500Y145262D01*
X119429Y145798D01*
X120187Y146555D01*
X120723Y147484D01*
X121000Y148519D01*
Y149591D01*
X120723Y150626D01*
X120187Y151555D01*
X119429Y152313D01*
X118500Y152849D01*
X117465Y153126D01*
D02*
G37*
G36*
X17465D02*
X16393D01*
X15358Y152849D01*
X14430Y152313D01*
X13672Y151555D01*
X13136Y150626D01*
X12858Y149591D01*
Y148519D01*
X13136Y147484D01*
X13672Y146555D01*
X14430Y145798D01*
X15358Y145262D01*
X16393Y144984D01*
X17465D01*
X18500Y145262D01*
X19429Y145798D01*
X20187Y146555D01*
X20723Y147484D01*
X21000Y148519D01*
Y149591D01*
X20723Y150626D01*
X20187Y151555D01*
X19429Y152313D01*
X18500Y152849D01*
X17465Y153126D01*
D02*
G37*
G36*
X67890Y156630D02*
X62032D01*
Y155466D01*
X55512D01*
X54927Y155350D01*
X54430Y155018D01*
X45178Y145766D01*
X44847Y145270D01*
X44730Y144685D01*
Y132874D01*
Y99803D01*
X44847Y99218D01*
X45178Y98722D01*
X56005Y87895D01*
X56501Y87563D01*
X57087Y87447D01*
X62189D01*
Y87386D01*
X66158D01*
Y90535D01*
Y93717D01*
X62189D01*
Y93655D01*
X59295D01*
X51529Y101421D01*
Y126600D01*
X51557D01*
X52403Y126950D01*
X52842Y127389D01*
X59039D01*
Y126559D01*
X67368D01*
Y125634D01*
X66438Y124704D01*
X66107Y124207D01*
X65990Y123622D01*
Y122063D01*
X64354D01*
Y119595D01*
X67520D01*
Y119095D01*
X68020D01*
Y116126D01*
X70685D01*
Y116126D01*
X71047D01*
Y116126D01*
X77378D01*
Y117259D01*
X86953D01*
X87655Y117399D01*
X88250Y117797D01*
X89577Y119123D01*
X90039Y118932D01*
Y99524D01*
X86248Y95733D01*
X84858D01*
Y97063D01*
X78921D01*
Y95230D01*
X77953D01*
X77368Y95114D01*
X76871Y94782D01*
X75744Y93655D01*
X71669D01*
Y93717D01*
X67701D01*
Y90535D01*
Y89476D01*
X69685D01*
Y88976D01*
X70185D01*
Y87386D01*
X71669D01*
Y87447D01*
X75744D01*
X77265Y85926D01*
X77761Y85595D01*
X78347Y85479D01*
X78921D01*
Y84039D01*
X81390D01*
Y87205D01*
X81890D01*
Y87705D01*
X84858D01*
Y90370D01*
X84858D01*
Y90732D01*
X84858D01*
Y92062D01*
X87008D01*
X87710Y92202D01*
X88306Y92600D01*
X89577Y93871D01*
X90039Y93680D01*
Y86492D01*
X89950Y86403D01*
X89600Y85558D01*
Y84642D01*
X89950Y83797D01*
X90597Y83150D01*
X91443Y82800D01*
X92357D01*
X93203Y83150D01*
X93850Y83797D01*
X94200Y84642D01*
Y85558D01*
X93850Y86403D01*
X93709Y86543D01*
Y98764D01*
Y120500D01*
Y124016D01*
Y129583D01*
X93824Y129697D01*
X94174Y130543D01*
Y131457D01*
X93824Y132303D01*
X93177Y132950D01*
X92331Y133300D01*
X91417D01*
X90571Y132950D01*
X89924Y132303D01*
X89574Y131457D01*
Y130543D01*
X89924Y129697D01*
X90039Y129583D01*
Y124776D01*
X86193Y120930D01*
X77378D01*
Y122063D01*
X75742D01*
Y123622D01*
X75626Y124207D01*
X75294Y124704D01*
X74069Y125929D01*
Y126559D01*
X74721D01*
Y131315D01*
X69398D01*
Y128937D01*
X68398D01*
Y131315D01*
X66392D01*
Y131988D01*
X66275Y132573D01*
X65944Y133070D01*
X65058Y133956D01*
X64562Y134287D01*
X63976Y134403D01*
X47789D01*
Y144052D01*
X56145Y152408D01*
X62032D01*
Y151244D01*
X63667D01*
Y143465D01*
X63784Y142879D01*
X64115Y142383D01*
X68525Y137974D01*
X69021Y137642D01*
X69606Y137526D01*
X113125D01*
X113136Y137484D01*
X113672Y136556D01*
X114430Y135798D01*
X115358Y135262D01*
X116393Y134984D01*
X117465D01*
X118500Y135262D01*
X119429Y135798D01*
X120187Y136556D01*
X120723Y137484D01*
X121000Y138519D01*
Y139591D01*
X120723Y140626D01*
X120187Y141555D01*
X119429Y142313D01*
X118500Y142849D01*
X117465Y143126D01*
X116393D01*
X115358Y142849D01*
X114430Y142313D01*
X113672Y141555D01*
X113136Y140626D01*
X113125Y140585D01*
X70240D01*
X66726Y144098D01*
Y151244D01*
X67890D01*
Y156630D01*
D02*
G37*
G36*
X17465Y143126D02*
X16393D01*
X15358Y142849D01*
X14430Y142313D01*
X13672Y141555D01*
X13136Y140626D01*
X12858Y139591D01*
Y138519D01*
X13136Y137484D01*
X13672Y136556D01*
X14430Y135798D01*
X15358Y135262D01*
X16393Y134984D01*
X17465D01*
X18500Y135262D01*
X19429Y135798D01*
X20187Y136556D01*
X20723Y137484D01*
X21000Y138519D01*
Y139591D01*
X20723Y140626D01*
X20187Y141555D01*
X19429Y142313D01*
X18500Y142849D01*
X17465Y143126D01*
D02*
G37*
G36*
X117465Y133126D02*
X117429D01*
Y129555D01*
X121000D01*
Y129591D01*
X120723Y130626D01*
X120187Y131555D01*
X119429Y132313D01*
X118500Y132849D01*
X117465Y133126D01*
D02*
G37*
G36*
X116429D02*
X116393D01*
X115358Y132849D01*
X114430Y132313D01*
X113672Y131555D01*
X113136Y130626D01*
X112858Y129591D01*
Y129555D01*
X116429D01*
Y133126D01*
D02*
G37*
G36*
X121000Y128555D02*
X117429D01*
Y124984D01*
X117465D01*
X118500Y125262D01*
X119429Y125798D01*
X120187Y126556D01*
X120723Y127484D01*
X121000Y128519D01*
Y128555D01*
D02*
G37*
G36*
X116429D02*
X112858D01*
Y128519D01*
X113136Y127484D01*
X113672Y126556D01*
X114430Y125798D01*
X115358Y125262D01*
X116393Y124984D01*
X116429D01*
Y128555D01*
D02*
G37*
G36*
X17465Y133126D02*
X16393D01*
X15358Y132849D01*
X14430Y132313D01*
X13672Y131555D01*
X13136Y130626D01*
X12858Y129591D01*
Y128519D01*
X13136Y127484D01*
X13672Y126556D01*
X14430Y125798D01*
X15358Y125262D01*
X16393Y124984D01*
X17465D01*
X18500Y125262D01*
X19429Y125798D01*
X20187Y126556D01*
X20723Y127484D01*
X21000Y128519D01*
Y129591D01*
X20723Y130626D01*
X20187Y131555D01*
X19429Y132313D01*
X18500Y132849D01*
X17465Y133126D01*
D02*
G37*
G36*
X67020Y118595D02*
X64354D01*
Y116126D01*
X67020D01*
Y118595D01*
D02*
G37*
G36*
X117465Y123126D02*
X116393D01*
X115358Y122849D01*
X114430Y122313D01*
X113672Y121555D01*
X113136Y120626D01*
X112858Y119591D01*
Y118519D01*
X113136Y117484D01*
X113672Y116556D01*
X114430Y115798D01*
X115358Y115262D01*
X116393Y114984D01*
X117465D01*
X118500Y115262D01*
X119429Y115798D01*
X120187Y116556D01*
X120723Y117484D01*
X121000Y118519D01*
Y119591D01*
X120723Y120626D01*
X120187Y121555D01*
X119429Y122313D01*
X118500Y122849D01*
X117465Y123126D01*
D02*
G37*
G36*
X17465D02*
X16393D01*
X15358Y122849D01*
X14430Y122313D01*
X13672Y121555D01*
X13136Y120626D01*
X12858Y119591D01*
Y118519D01*
X13136Y117484D01*
X13672Y116556D01*
X14430Y115798D01*
X15358Y115262D01*
X16393Y114984D01*
X17465D01*
X18500Y115262D01*
X19429Y115798D01*
X20187Y116556D01*
X20723Y117484D01*
X21000Y118519D01*
Y119591D01*
X20723Y120626D01*
X20187Y121555D01*
X19429Y122313D01*
X18500Y122849D01*
X17465Y123126D01*
D02*
G37*
G36*
X117465Y113126D02*
X116393D01*
X115358Y112849D01*
X114430Y112313D01*
X113672Y111555D01*
X113136Y110626D01*
X112858Y109591D01*
Y108519D01*
X113136Y107484D01*
X113672Y106555D01*
X114430Y105798D01*
X115358Y105262D01*
X116393Y104984D01*
X117465D01*
X118500Y105262D01*
X119429Y105798D01*
X120187Y106555D01*
X120723Y107484D01*
X121000Y108519D01*
Y109591D01*
X120723Y110626D01*
X120187Y111555D01*
X119429Y112313D01*
X118500Y112849D01*
X117465Y113126D01*
D02*
G37*
G36*
X17465D02*
X16393D01*
X15358Y112849D01*
X14430Y112313D01*
X13672Y111555D01*
X13136Y110626D01*
X12858Y109591D01*
Y108519D01*
X13136Y107484D01*
X13672Y106555D01*
X14430Y105798D01*
X15358Y105262D01*
X16393Y104984D01*
X17465D01*
X18500Y105262D01*
X19429Y105798D01*
X20187Y106555D01*
X20723Y107484D01*
X21000Y108519D01*
Y109591D01*
X20723Y110626D01*
X20187Y111555D01*
X19429Y112313D01*
X18500Y112849D01*
X17465Y113126D01*
D02*
G37*
G36*
X117465Y103126D02*
X116393D01*
X115358Y102849D01*
X114430Y102313D01*
X113672Y101555D01*
X113136Y100626D01*
X112858Y99591D01*
Y98519D01*
X113136Y97484D01*
X113672Y96556D01*
X114430Y95798D01*
X115358Y95262D01*
X116393Y94984D01*
X117465D01*
X118500Y95262D01*
X119429Y95798D01*
X120187Y96556D01*
X120723Y97484D01*
X121000Y98519D01*
Y99591D01*
X120723Y100626D01*
X120187Y101555D01*
X119429Y102313D01*
X118500Y102849D01*
X117465Y103126D01*
D02*
G37*
G36*
X17465D02*
X16393D01*
X15358Y102849D01*
X14430Y102313D01*
X13672Y101555D01*
X13136Y100626D01*
X12858Y99591D01*
Y98519D01*
X13136Y97484D01*
X13672Y96556D01*
X14430Y95798D01*
X15358Y95262D01*
X16393Y94984D01*
X17465D01*
X18500Y95262D01*
X19429Y95798D01*
X20187Y96556D01*
X20723Y97484D01*
X21000Y98519D01*
Y99591D01*
X20723Y100626D01*
X20187Y101555D01*
X19429Y102313D01*
X18500Y102849D01*
X17465Y103126D01*
D02*
G37*
G36*
X69185Y88476D02*
X67701D01*
Y87386D01*
X69185D01*
Y88476D01*
D02*
G37*
G36*
X117465Y93126D02*
X116393D01*
X115358Y92849D01*
X114430Y92313D01*
X113672Y91555D01*
X113136Y90626D01*
X112858Y89591D01*
Y88519D01*
X113136Y87484D01*
X113672Y86556D01*
X114430Y85798D01*
X115358Y85262D01*
X116393Y84984D01*
X117465D01*
X118500Y85262D01*
X119429Y85798D01*
X120187Y86556D01*
X120723Y87484D01*
X121000Y88519D01*
Y89591D01*
X120723Y90626D01*
X120187Y91555D01*
X119429Y92313D01*
X118500Y92849D01*
X117465Y93126D01*
D02*
G37*
G36*
X17465D02*
X16393D01*
X15358Y92849D01*
X14430Y92313D01*
X13672Y91555D01*
X13136Y90626D01*
X12858Y89591D01*
Y88519D01*
X13136Y87484D01*
X13672Y86556D01*
X14430Y85798D01*
X15358Y85262D01*
X16393Y84984D01*
X17465D01*
X18500Y85262D01*
X19429Y85798D01*
X20187Y86556D01*
X20723Y87484D01*
X21000Y88519D01*
Y89591D01*
X20723Y90626D01*
X20187Y91555D01*
X19429Y92313D01*
X18500Y92849D01*
X17465Y93126D01*
D02*
G37*
G36*
X84858Y86705D02*
X82390D01*
Y84039D01*
X84858D01*
Y86705D01*
D02*
G37*
G36*
X117465Y83126D02*
X116393D01*
X115358Y82849D01*
X114430Y82313D01*
X113672Y81555D01*
X113136Y80626D01*
X112858Y79591D01*
Y78519D01*
X113136Y77484D01*
X113672Y76556D01*
X114430Y75798D01*
X115358Y75262D01*
X116393Y74984D01*
X117465D01*
X118500Y75262D01*
X119429Y75798D01*
X120187Y76556D01*
X120723Y77484D01*
X121000Y78519D01*
Y79591D01*
X120723Y80626D01*
X120187Y81555D01*
X119429Y82313D01*
X118500Y82849D01*
X117465Y83126D01*
D02*
G37*
G36*
X17465D02*
X16393D01*
X15358Y82849D01*
X14430Y82313D01*
X13672Y81555D01*
X13136Y80626D01*
X12858Y79591D01*
Y78519D01*
X13136Y77484D01*
X13672Y76556D01*
X14430Y75798D01*
X15358Y75262D01*
X16393Y74984D01*
X17465D01*
X18500Y75262D01*
X19429Y75798D01*
X20187Y76556D01*
X20723Y77484D01*
X21000Y78519D01*
Y79591D01*
X20723Y80626D01*
X20187Y81555D01*
X19429Y82313D01*
X18500Y82849D01*
X17465Y83126D01*
D02*
G37*
G36*
X117465Y73126D02*
X116393D01*
X115358Y72849D01*
X114430Y72313D01*
X113672Y71555D01*
X113136Y70626D01*
X113125Y70584D01*
X61181D01*
X60596Y70468D01*
X60100Y70137D01*
X36379Y46416D01*
X36048Y45920D01*
X35931Y45335D01*
Y41315D01*
X34768D01*
Y35457D01*
X40154D01*
Y41315D01*
X38990D01*
Y44701D01*
X61815Y67526D01*
X113125D01*
X113136Y67484D01*
X113672Y66556D01*
X114430Y65798D01*
X115358Y65262D01*
X116393Y64984D01*
X117465D01*
X118500Y65262D01*
X119429Y65798D01*
X120187Y66556D01*
X120723Y67484D01*
X121000Y68519D01*
Y69591D01*
X120723Y70626D01*
X120187Y71555D01*
X119429Y72313D01*
X118500Y72849D01*
X117465Y73126D01*
D02*
G37*
G36*
X17465D02*
X16393D01*
X15358Y72849D01*
X14430Y72313D01*
X13672Y71555D01*
X13136Y70626D01*
X12858Y69591D01*
Y68519D01*
X13136Y67484D01*
X13672Y66556D01*
X14430Y65798D01*
X15358Y65262D01*
X16393Y64984D01*
X17465D01*
X18500Y65262D01*
X19429Y65798D01*
X20187Y66556D01*
X20723Y67484D01*
X21000Y68519D01*
Y69591D01*
X20723Y70626D01*
X20187Y71555D01*
X19429Y72313D01*
X18500Y72849D01*
X17465Y73126D01*
D02*
G37*
G36*
Y63126D02*
X17429D01*
Y59555D01*
X21000D01*
Y59591D01*
X20723Y60626D01*
X20187Y61555D01*
X19429Y62313D01*
X18500Y62849D01*
X17465Y63126D01*
D02*
G37*
G36*
X16429D02*
X16393D01*
X15358Y62849D01*
X14430Y62313D01*
X13672Y61555D01*
X13136Y60626D01*
X12858Y59591D01*
Y59555D01*
X16429D01*
Y63126D01*
D02*
G37*
G36*
X117465D02*
X116393D01*
X115358Y62849D01*
X114430Y62313D01*
X113672Y61555D01*
X113136Y60626D01*
X112858Y59591D01*
Y58519D01*
X113136Y57484D01*
X113672Y56556D01*
X114430Y55798D01*
X115358Y55262D01*
X116393Y54984D01*
X117465D01*
X118500Y55262D01*
X119429Y55798D01*
X120187Y56556D01*
X120723Y57484D01*
X121000Y58519D01*
Y59591D01*
X120723Y60626D01*
X120187Y61555D01*
X119429Y62313D01*
X118500Y62849D01*
X117465Y63126D01*
D02*
G37*
G36*
X21000Y58555D02*
X17429D01*
Y54984D01*
X17465D01*
X18500Y55262D01*
X19429Y55798D01*
X20187Y56556D01*
X20723Y57484D01*
X21000Y58519D01*
Y58555D01*
D02*
G37*
G36*
X16429D02*
X12858D01*
Y58519D01*
X13136Y57484D01*
X13672Y56556D01*
X14430Y55798D01*
X15358Y55262D01*
X16393Y54984D01*
X16429D01*
Y58555D01*
D02*
G37*
G36*
X117465Y53126D02*
X116393D01*
X115358Y52849D01*
X114430Y52313D01*
X113672Y51555D01*
X113136Y50626D01*
X113125Y50585D01*
X71693D01*
X71108Y50468D01*
X70612Y50137D01*
X66832Y46357D01*
X66500Y45861D01*
X66384Y45276D01*
Y41315D01*
X65280D01*
Y35457D01*
X70665D01*
Y41315D01*
X69443D01*
Y44642D01*
X72326Y47526D01*
X113125D01*
X113136Y47484D01*
X113672Y46556D01*
X114430Y45798D01*
X115358Y45262D01*
X116393Y44984D01*
X117465D01*
X118500Y45262D01*
X119429Y45798D01*
X120187Y46556D01*
X120723Y47484D01*
X121000Y48519D01*
Y49591D01*
X120723Y50626D01*
X120187Y51555D01*
X119429Y52313D01*
X118500Y52849D01*
X117465Y53126D01*
D02*
G37*
G36*
X17465D02*
X16393D01*
X15358Y52849D01*
X14430Y52313D01*
X13672Y51555D01*
X13136Y50626D01*
X12858Y49591D01*
Y48519D01*
X13136Y47484D01*
X13672Y46556D01*
X14430Y45798D01*
X15358Y45262D01*
X16393Y44984D01*
X17465D01*
X18500Y45262D01*
X19429Y45798D01*
X20187Y46556D01*
X20723Y47484D01*
X21000Y48519D01*
Y49591D01*
X20723Y50626D01*
X20187Y51555D01*
X19429Y52313D01*
X18500Y52849D01*
X17465Y53126D01*
D02*
G37*
G36*
X98224Y41315D02*
X92839D01*
Y35457D01*
X98224D01*
Y36551D01*
X100945D01*
X101059Y36436D01*
X101905Y36086D01*
X102820D01*
X103665Y36436D01*
X104312Y37083D01*
X104662Y37928D01*
Y38843D01*
X104312Y39689D01*
X103665Y40336D01*
X102820Y40686D01*
X101905D01*
X101059Y40336D01*
X100945Y40221D01*
X98224D01*
Y41315D01*
D02*
G37*
G36*
X117465Y43126D02*
X116393D01*
X115358Y42849D01*
X114430Y42313D01*
X113672Y41555D01*
X113136Y40626D01*
X112858Y39591D01*
Y38519D01*
X113136Y37484D01*
X113672Y36555D01*
X114430Y35798D01*
X115358Y35262D01*
X116393Y34984D01*
X117465D01*
X118500Y35262D01*
X119429Y35798D01*
X120187Y36555D01*
X120723Y37484D01*
X121000Y38519D01*
Y39591D01*
X120723Y40626D01*
X120187Y41555D01*
X119429Y42313D01*
X118500Y42849D01*
X117465Y43126D01*
D02*
G37*
G36*
X17465D02*
X16393D01*
X15358Y42849D01*
X14430Y42313D01*
X13672Y41555D01*
X13136Y40626D01*
X12858Y39591D01*
Y38519D01*
X13136Y37484D01*
X13672Y36555D01*
X14430Y35798D01*
X15358Y35262D01*
X16393Y34984D01*
X17465D01*
X18500Y35262D01*
X19429Y35798D01*
X20187Y36555D01*
X20723Y37484D01*
X21000Y38519D01*
Y39591D01*
X20723Y40626D01*
X20187Y41555D01*
X19429Y42313D01*
X18500Y42849D01*
X17465Y43126D01*
D02*
G37*
G36*
X117465Y33126D02*
X116393D01*
X115358Y32849D01*
X114430Y32313D01*
X113672Y31555D01*
X113136Y30626D01*
X112858Y29591D01*
Y28519D01*
X113136Y27484D01*
X113672Y26555D01*
X114430Y25798D01*
X115358Y25262D01*
X116393Y24984D01*
X117465D01*
X118500Y25262D01*
X119429Y25798D01*
X120187Y26555D01*
X120723Y27484D01*
X121000Y28519D01*
Y29591D01*
X120723Y30626D01*
X120187Y31555D01*
X119429Y32313D01*
X118500Y32849D01*
X117465Y33126D01*
D02*
G37*
G36*
X17465D02*
X16393D01*
X15358Y32849D01*
X14430Y32313D01*
X13672Y31555D01*
X13136Y30626D01*
X12858Y29591D01*
Y28519D01*
X13136Y27484D01*
X13672Y26555D01*
X14430Y25798D01*
X15358Y25262D01*
X16393Y24984D01*
X17465D01*
X18500Y25262D01*
X19429Y25798D01*
X20187Y26555D01*
X20723Y27484D01*
X21000Y28519D01*
Y29591D01*
X20723Y30626D01*
X20187Y31555D01*
X19429Y32313D01*
X18500Y32849D01*
X17465Y33126D01*
D02*
G37*
G36*
X41917Y27397D02*
Y24122D01*
X45192D01*
X44936Y25079D01*
X44438Y25940D01*
X43736Y26643D01*
X42875Y27140D01*
X41917Y27397D01*
D02*
G37*
G36*
X72429Y27397D02*
Y24122D01*
X75704D01*
X75447Y25079D01*
X74950Y25940D01*
X74247Y26643D01*
X73387Y27140D01*
X72429Y27397D01*
D02*
G37*
G36*
X99988D02*
Y24122D01*
X103263D01*
X103006Y25079D01*
X102509Y25940D01*
X101806Y26643D01*
X100945Y27140D01*
X99988Y27397D01*
D02*
G37*
G36*
X98988Y27397D02*
X98031Y27140D01*
X97170Y26643D01*
X96467Y25940D01*
X95970Y25079D01*
X95713Y24122D01*
X98988D01*
Y27397D01*
D02*
G37*
G36*
X71429D02*
X70472Y27140D01*
X69611Y26643D01*
X68908Y25940D01*
X68411Y25079D01*
X68154Y24122D01*
X71429D01*
Y27397D01*
D02*
G37*
G36*
X40917Y27397D02*
X39960Y27140D01*
X39099Y26643D01*
X38396Y25940D01*
X37899Y25079D01*
X37642Y24122D01*
X40917D01*
Y27397D01*
D02*
G37*
G36*
X45192Y23122D02*
X41917D01*
Y19847D01*
X42875Y20104D01*
X43736Y20601D01*
X44438Y21304D01*
X44936Y22165D01*
X45192Y23122D01*
D02*
G37*
G36*
X98988D02*
X95713D01*
X95970Y22165D01*
X96467Y21304D01*
X97170Y20601D01*
X98031Y20104D01*
X98988Y19847D01*
Y23122D01*
D02*
G37*
G36*
X71429D02*
X68154D01*
X68411Y22165D01*
X68908Y21304D01*
X69611Y20601D01*
X70472Y20104D01*
X71429Y19847D01*
Y23122D01*
D02*
G37*
G36*
X75704D02*
X72429D01*
Y19847D01*
X73387Y20104D01*
X74247Y20601D01*
X74950Y21304D01*
X75447Y22165D01*
X75704Y23122D01*
D02*
G37*
G36*
X103263D02*
X99988D01*
Y19847D01*
X100945Y20104D01*
X101806Y20601D01*
X102509Y21304D01*
X103006Y22165D01*
X103263Y23122D01*
D02*
G37*
G36*
X40917D02*
X37642D01*
X37899Y22165D01*
X38396Y21304D01*
X39099Y20601D01*
X39960Y20104D01*
X40917Y19847D01*
Y23122D01*
D02*
G37*
G36*
X92201Y41315D02*
X86815D01*
Y35457D01*
X87959D01*
Y27099D01*
X87170Y26643D01*
X86467Y25940D01*
X85970Y25079D01*
X85713Y24119D01*
Y23125D01*
X85970Y22165D01*
X86467Y21304D01*
X87170Y20601D01*
X88031Y20104D01*
X88991Y19847D01*
X89985D01*
X90946Y20104D01*
X91807Y20601D01*
X92509Y21304D01*
X93006Y22165D01*
X93264Y23125D01*
Y24119D01*
X93006Y25079D01*
X92509Y25940D01*
X91807Y26643D01*
X91018Y27099D01*
Y35457D01*
X92201D01*
Y41315D01*
D02*
G37*
G36*
X64642D02*
X59256D01*
Y35457D01*
X60400D01*
Y27099D01*
X59611Y26643D01*
X58908Y25940D01*
X58411Y25079D01*
X58153Y24119D01*
Y23125D01*
X58411Y22165D01*
X58908Y21304D01*
X59611Y20601D01*
X60472Y20104D01*
X61432Y19847D01*
X62426D01*
X63386Y20104D01*
X64247Y20601D01*
X64950Y21304D01*
X65447Y22165D01*
X65705Y23125D01*
Y24119D01*
X65447Y25079D01*
X64950Y25940D01*
X64247Y26643D01*
X63459Y27099D01*
Y35457D01*
X64642D01*
Y41315D01*
D02*
G37*
G36*
X34130D02*
X28744D01*
Y35457D01*
X29888D01*
Y27099D01*
X29099Y26643D01*
X28396Y25940D01*
X27899Y25079D01*
X27642Y24119D01*
Y23125D01*
X27899Y22165D01*
X28396Y21304D01*
X29099Y20601D01*
X29960Y20104D01*
X30920Y19847D01*
X31914D01*
X32875Y20104D01*
X33736Y20601D01*
X34438Y21304D01*
X34936Y22165D01*
X35193Y23125D01*
Y24119D01*
X34936Y25079D01*
X34438Y25940D01*
X33736Y26643D01*
X32947Y27099D01*
Y35457D01*
X34130D01*
Y41315D01*
D02*
G37*
G36*
X117465Y23126D02*
X116393D01*
X115358Y22849D01*
X114430Y22313D01*
X113672Y21555D01*
X113136Y20626D01*
X112858Y19591D01*
Y18519D01*
X113136Y17484D01*
X113672Y16556D01*
X114430Y15798D01*
X115358Y15262D01*
X116393Y14984D01*
X117465D01*
X118500Y15262D01*
X119429Y15798D01*
X120187Y16556D01*
X120723Y17484D01*
X121000Y18519D01*
Y19591D01*
X120723Y20626D01*
X120187Y21555D01*
X119429Y22313D01*
X118500Y22849D01*
X117465Y23126D01*
D02*
G37*
G36*
X17465D02*
X16393D01*
X15358Y22849D01*
X14430Y22313D01*
X13672Y21555D01*
X13136Y20626D01*
X12858Y19591D01*
Y18519D01*
X13136Y17484D01*
X13672Y16556D01*
X14430Y15798D01*
X15358Y15262D01*
X16393Y14984D01*
X17465D01*
X18500Y15262D01*
X19429Y15798D01*
X20187Y16556D01*
X20723Y17484D01*
X21000Y18519D01*
Y19591D01*
X20723Y20626D01*
X20187Y21555D01*
X19429Y22313D01*
X18500Y22849D01*
X17465Y23126D01*
D02*
G37*
G36*
X117465Y13126D02*
X116393D01*
X115358Y12849D01*
X114430Y12313D01*
X113672Y11555D01*
X113136Y10626D01*
X112858Y9591D01*
Y8519D01*
X113136Y7484D01*
X113672Y6555D01*
X114430Y5798D01*
X115358Y5262D01*
X116393Y4984D01*
X117465D01*
X118500Y5262D01*
X119429Y5798D01*
X120187Y6555D01*
X120723Y7484D01*
X121000Y8519D01*
Y9591D01*
X120723Y10626D01*
X120187Y11555D01*
X119429Y12313D01*
X118500Y12849D01*
X117465Y13126D01*
D02*
G37*
G36*
X17465D02*
X16393D01*
X15358Y12849D01*
X14430Y12313D01*
X13672Y11555D01*
X13136Y10626D01*
X12858Y9591D01*
Y8519D01*
X13136Y7484D01*
X13672Y6555D01*
X14430Y5798D01*
X15358Y5262D01*
X16393Y4984D01*
X17465D01*
X18500Y5262D01*
X19429Y5798D01*
X20187Y6555D01*
X20723Y7484D01*
X21000Y8519D01*
Y9591D01*
X20723Y10626D01*
X20187Y11555D01*
X19429Y12313D01*
X18500Y12849D01*
X17465Y13126D01*
D02*
G37*
%LPD*%
D12*
X51100Y128614D02*
Y128900D01*
X50000Y127514D02*
X51100Y128614D01*
X50000Y100787D02*
X58661Y92126D01*
X50000Y100787D02*
Y127514D01*
X57087Y88976D02*
X64173D01*
X46260Y99803D02*
Y132874D01*
Y99803D02*
X57087Y88976D01*
X58661Y92126D02*
X64173D01*
X61202Y128919D02*
X61221Y128937D01*
X51118Y128919D02*
X61202D01*
X51100Y128900D02*
X51118Y128919D01*
X46260Y132874D02*
X63976D01*
X64862Y131988D01*
X46260Y132874D02*
Y144685D01*
X55512Y153937D01*
X64862Y128937D02*
Y131988D01*
X71653Y153937D02*
X87402D01*
X102520Y169055D02*
X116929D01*
X87402Y153937D02*
X102520Y169055D01*
X72539Y125295D02*
X74213Y123622D01*
X72539Y125295D02*
Y128937D01*
X74213Y119095D02*
Y123622D01*
X68898Y125000D02*
Y128937D01*
X67520Y123622D02*
X68898Y125000D01*
X67520Y119095D02*
Y123622D01*
X69685Y88976D02*
X76378D01*
X69685Y92126D02*
X76378D01*
X37461Y38386D02*
Y45335D01*
X61181Y69055D02*
X116929D01*
X37461Y45335D02*
X61181Y69055D01*
X71693Y49055D02*
X116929D01*
X67913Y45276D02*
X71693Y49055D01*
X67913Y38445D02*
Y45276D01*
Y38445D02*
X67972Y38386D01*
X31417Y23622D02*
Y38366D01*
X31437Y38386D01*
X61929Y38366D02*
X61949Y38386D01*
X61929Y23622D02*
Y38366D01*
X89488Y38366D02*
X89508Y38386D01*
X89488Y23622D02*
Y38366D01*
X55512Y153937D02*
X64961D01*
X91847Y120472D02*
X91874Y120500D01*
X71653Y147244D02*
Y153937D01*
X77953Y93701D02*
X81890D01*
X76378Y92126D02*
X77953Y93701D01*
X78347Y87008D02*
X81693D01*
X81890Y87205D01*
X76378Y88976D02*
X78347Y87008D01*
X81890Y93701D02*
Y93898D01*
X71653Y153937D02*
X71653Y153937D01*
X65197Y143465D02*
Y153937D01*
Y143465D02*
X69606Y139055D01*
X116929D01*
D15*
X91874Y85126D02*
X91900Y85100D01*
X91874Y85126D02*
Y98764D01*
Y169039D02*
Y175842D01*
X91732Y168898D02*
X91874Y169039D01*
X78661Y189055D02*
X91874Y175842D01*
X52087Y189055D02*
X64961Y176181D01*
Y159961D02*
Y176181D01*
X52087Y189055D02*
X78661D01*
X16929D02*
X52087D01*
X64961Y159961D02*
X71653D01*
X86953Y119095D02*
X91874Y124016D01*
X74213Y119095D02*
X86953D01*
X91874Y120500D02*
Y124016D01*
Y131000D01*
Y98764D02*
Y120500D01*
X81890Y93898D02*
X87008D01*
X91874Y98764D01*
X95531Y38386D02*
X102362D01*
D16*
X31417Y23622D02*
D03*
X41417D02*
D03*
X99488D02*
D03*
X89488D02*
D03*
X71929D02*
D03*
X61929D02*
D03*
D17*
X116929Y9055D02*
D03*
Y19055D02*
D03*
Y29055D02*
D03*
Y39055D02*
D03*
Y49055D02*
D03*
Y59055D02*
D03*
Y69055D02*
D03*
Y79055D02*
D03*
Y89055D02*
D03*
Y99055D02*
D03*
Y109055D02*
D03*
Y119055D02*
D03*
Y129055D02*
D03*
Y139055D02*
D03*
Y149055D02*
D03*
Y159055D02*
D03*
Y169055D02*
D03*
Y179055D02*
D03*
Y189055D02*
D03*
X16929Y19055D02*
D03*
Y29055D02*
D03*
Y39055D02*
D03*
Y49055D02*
D03*
Y59055D02*
D03*
Y69055D02*
D03*
Y79055D02*
D03*
Y89055D02*
D03*
Y99055D02*
D03*
Y109055D02*
D03*
Y119055D02*
D03*
Y129055D02*
D03*
Y139055D02*
D03*
Y149055D02*
D03*
Y159055D02*
D03*
Y169055D02*
D03*
Y9055D02*
D03*
Y179055D02*
D03*
Y189055D02*
D03*
D18*
X82731Y145760D02*
D03*
X102362Y149606D02*
D03*
X70866Y78740D02*
D03*
X98740Y183465D02*
D03*
X108740Y163465D02*
D03*
X98740Y103465D02*
D03*
X108740Y83465D02*
D03*
Y43465D02*
D03*
X78740Y103465D02*
D03*
Y63465D02*
D03*
X58740Y103465D02*
D03*
X38740Y183465D02*
D03*
X48740Y163465D02*
D03*
X38740Y143465D02*
D03*
Y103465D02*
D03*
X48740Y83465D02*
D03*
X38740Y63465D02*
D03*
X48740Y43465D02*
D03*
X28740Y163465D02*
D03*
Y123465D02*
D03*
Y83465D02*
D03*
D19*
X51100Y128900D02*
D03*
X91900Y85100D02*
D03*
X91732Y168898D02*
D03*
X102362Y38386D02*
D03*
X91874Y131000D02*
D03*
X71653Y147244D02*
D03*
D20*
X71653Y153937D02*
D03*
Y159961D02*
D03*
X64961D02*
D03*
Y153937D02*
D03*
D21*
X68898Y128937D02*
D03*
X64862D02*
D03*
D22*
X61221D02*
D03*
D23*
X72539D02*
D03*
D24*
X64173Y88976D02*
D03*
Y92126D02*
D03*
X69685D02*
D03*
Y88976D02*
D03*
D25*
X89508Y38386D02*
D03*
X95531D02*
D03*
X31437D02*
D03*
X37461D02*
D03*
X61949D02*
D03*
X67972D02*
D03*
D26*
X74213Y119095D02*
D03*
X67520D02*
D03*
D27*
X81890Y87205D02*
D03*
Y93898D02*
D03*
M02*
