G04*
G04 #@! TF.GenerationSoftware,Altium Limited,Altium Designer,21.5.1 (32)*
G04*
G04 Layer_Color=16711935*
%FSLAX25Y25*%
%MOIN*%
G70*
G04*
G04 #@! TF.SameCoordinates,B44AFF20-6257-4841-829A-698601589143*
G04*
G04*
G04 #@! TF.FilePolarity,Negative*
G04*
G01*
G75*
%ADD13C,0.06351*%
%ADD14C,0.06942*%
%ADD28R,0.04658X0.04186*%
%ADD29R,0.03950X0.03556*%
%ADD30R,0.03162X0.03556*%
%ADD31R,0.03162X0.03556*%
%ADD32R,0.02769X0.01981*%
%ADD33R,0.04186X0.04658*%
%ADD34R,0.05131X0.04737*%
%ADD35R,0.04737X0.05131*%
D13*
X31417Y23622D02*
D03*
X41417D02*
D03*
X99488D02*
D03*
X89488D02*
D03*
X71929D02*
D03*
X61929D02*
D03*
D14*
X116929Y9055D02*
D03*
Y19055D02*
D03*
Y29055D02*
D03*
Y39055D02*
D03*
Y49055D02*
D03*
Y59055D02*
D03*
Y69055D02*
D03*
Y79055D02*
D03*
Y89055D02*
D03*
Y99055D02*
D03*
Y109055D02*
D03*
Y119055D02*
D03*
Y129055D02*
D03*
Y139055D02*
D03*
Y149055D02*
D03*
Y159055D02*
D03*
Y169055D02*
D03*
Y179055D02*
D03*
Y189055D02*
D03*
X16929Y19055D02*
D03*
Y29055D02*
D03*
Y39055D02*
D03*
Y49055D02*
D03*
Y59055D02*
D03*
Y69055D02*
D03*
Y79055D02*
D03*
Y89055D02*
D03*
Y99055D02*
D03*
Y109055D02*
D03*
Y119055D02*
D03*
Y129055D02*
D03*
Y139055D02*
D03*
Y149055D02*
D03*
Y159055D02*
D03*
Y169055D02*
D03*
Y9055D02*
D03*
Y179055D02*
D03*
Y189055D02*
D03*
D28*
X71653Y153937D02*
D03*
Y159961D02*
D03*
X64961D02*
D03*
Y153937D02*
D03*
D29*
X68898Y128937D02*
D03*
X64862D02*
D03*
D30*
X61221D02*
D03*
D31*
X72539D02*
D03*
D32*
X64173Y88976D02*
D03*
Y92126D02*
D03*
X69685D02*
D03*
Y88976D02*
D03*
D33*
X89508Y38386D02*
D03*
X95531D02*
D03*
X31437D02*
D03*
X37461D02*
D03*
X61949D02*
D03*
X67972D02*
D03*
D34*
X74213Y119095D02*
D03*
X67520D02*
D03*
D35*
X81890Y87205D02*
D03*
Y93898D02*
D03*
M02*
