G04*
G04 #@! TF.GenerationSoftware,Altium Limited,Altium Designer,21.5.1 (32)*
G04*
G04 Layer_Color=32896*
%FSLAX25Y25*%
%MOIN*%
G70*
G04*
G04 #@! TF.SameCoordinates,B44AFF20-6257-4841-829A-698601589143*
G04*
G04*
G04 #@! TF.FilePolarity,Positive*
G04*
G01*
G75*
%ADD11C,0.00600*%
%ADD12C,0.01000*%
%ADD36C,0.00787*%
%ADD37C,0.00394*%
D11*
X42282Y12820D02*
Y9621D01*
X40150D01*
X36950Y12820D02*
X39083D01*
Y9621D01*
X36950D01*
X39083Y11220D02*
X38017D01*
X35884Y12820D02*
Y9621D01*
X34285D01*
X33751Y10154D01*
Y12287D01*
X34285Y12820D01*
X35884D01*
X30553Y9621D02*
X32685D01*
X30553Y11754D01*
Y12287D01*
X31086Y12820D01*
X32152D01*
X32685Y12287D01*
X72261Y12820D02*
Y9621D01*
X70128D01*
X66929Y12820D02*
X69062D01*
Y9621D01*
X66929D01*
X69062Y11220D02*
X67996D01*
X65863Y12820D02*
Y9621D01*
X64263D01*
X63730Y10154D01*
Y12287D01*
X64263Y12820D01*
X65863D01*
X62664Y9621D02*
X61598D01*
X62131D01*
Y12820D01*
X62664Y12287D01*
X98753Y12090D02*
X98220Y12623D01*
X97154D01*
X96621Y12090D01*
Y11557D01*
X97154Y11024D01*
X97687D01*
X97154D01*
X96621Y10491D01*
Y9957D01*
X97154Y9424D01*
X98220D01*
X98753Y9957D01*
X95555Y12623D02*
Y10491D01*
X94488Y9424D01*
X93422Y10491D01*
Y12623D01*
X92356Y12090D02*
X91822Y12623D01*
X90756D01*
X90223Y12090D01*
Y11557D01*
X90756Y11024D01*
X91289D01*
X90756D01*
X90223Y10491D01*
Y9957D01*
X90756Y9424D01*
X91822D01*
X92356Y9957D01*
X67626Y42692D02*
Y45891D01*
X66027D01*
X65494Y45358D01*
Y44291D01*
X66027Y43758D01*
X67626D01*
X66560D02*
X65494Y42692D01*
X62295Y45891D02*
X64428D01*
Y44291D01*
X63361Y44824D01*
X62828D01*
X62295Y44291D01*
Y43225D01*
X62828Y42692D01*
X63894D01*
X64428Y43225D01*
X37599Y42692D02*
Y45891D01*
X35999D01*
X35466Y45358D01*
Y44291D01*
X35999Y43758D01*
X37599D01*
X36533D02*
X35466Y42692D01*
X32800D02*
Y45891D01*
X34400Y44291D01*
X32267D01*
X95186Y42692D02*
Y45891D01*
X93586D01*
X93053Y45358D01*
Y44291D01*
X93586Y43758D01*
X95186D01*
X94119D02*
X93053Y42692D01*
X91987Y45358D02*
X91453Y45891D01*
X90387D01*
X89854Y45358D01*
Y44824D01*
X90387Y44291D01*
X90920D01*
X90387D01*
X89854Y43758D01*
Y43225D01*
X90387Y42692D01*
X91453D01*
X91987Y43225D01*
X70928Y101600D02*
X69862D01*
X70395D01*
Y98400D01*
X70928D01*
X69862D01*
X66129Y101066D02*
X66663Y101600D01*
X67729D01*
X68262Y101066D01*
Y98934D01*
X67729Y98400D01*
X66663D01*
X66129Y98934D01*
X62930Y98400D02*
X65063D01*
X62930Y100533D01*
Y101066D01*
X63464Y101600D01*
X64530D01*
X65063Y101066D01*
X82423D02*
X82956Y101600D01*
X84022D01*
X84556Y101066D01*
Y98934D01*
X84022Y98400D01*
X82956D01*
X82423Y98934D01*
X79224Y98400D02*
X81357D01*
X79224Y100533D01*
Y101066D01*
X79757Y101600D01*
X80823D01*
X81357Y101066D01*
X70866Y114058D02*
X71399Y114592D01*
X72466D01*
X72999Y114058D01*
Y111926D01*
X72466Y111393D01*
X71399D01*
X70866Y111926D01*
X69800Y111393D02*
X68734D01*
X69267D01*
Y114592D01*
X69800Y114058D01*
X66839Y164542D02*
Y167741D01*
X65240D01*
X64706Y167208D01*
Y166142D01*
X65240Y165609D01*
X66839D01*
X65773D02*
X64706Y164542D01*
X61507D02*
X63640D01*
X61507Y166675D01*
Y167208D01*
X62041Y167741D01*
X63107D01*
X63640Y167208D01*
X74574Y164542D02*
Y167741D01*
X72974D01*
X72441Y167208D01*
Y166142D01*
X72974Y165609D01*
X74574D01*
X73507D02*
X72441Y164542D01*
X71375D02*
X70308D01*
X70841D01*
Y167741D01*
X71375Y167208D01*
X70395Y141363D02*
X69328D01*
X69862D01*
Y138164D01*
X70395D01*
X69328D01*
X65596Y140830D02*
X66129Y141363D01*
X67196D01*
X67729Y140830D01*
Y138698D01*
X67196Y138164D01*
X66129D01*
X65596Y138698D01*
X64530Y138164D02*
X63464D01*
X63997D01*
Y141363D01*
X64530Y140830D01*
D12*
X75828Y128937D02*
G03*
X75828Y128937I-139J0D01*
G01*
D36*
X46760Y23555D02*
G03*
X46760Y23555I-146J0D01*
G01*
X43227Y27167D02*
G03*
X29608Y27167I-6810J-3545D01*
G01*
Y20077D02*
G03*
X43227Y20077I6810J3545D01*
G01*
X87678D02*
G03*
X101298Y20077I6810J3545D01*
G01*
Y27167D02*
G03*
X87678Y27167I-6810J-3545D01*
G01*
X104831Y23555D02*
G03*
X104831Y23555I-146J0D01*
G01*
X60119Y20077D02*
G03*
X73739Y20077I6810J3545D01*
G01*
Y27167D02*
G03*
X60119Y27167I-6810J-3545D01*
G01*
X77272Y23555D02*
G03*
X77272Y23555I-146J0D01*
G01*
X60236Y135827D02*
X63189D01*
X60236Y132382D02*
Y135827D01*
X70571D02*
X73524D01*
Y132382D02*
Y135827D01*
X66142Y87598D02*
X67716D01*
X66142Y93504D02*
X67716D01*
D37*
X61417Y88976D02*
G03*
X61024Y88976I-197J0D01*
G01*
D02*
G03*
X61417Y88976I197J0D01*
G01*
M02*
