M48
;Layer_Color=9474304
;FILE_FORMAT=2:5
INCH,LZ
;TYPE=PLATED
T1F00S00C0.01600
T2F00S00C0.02800
T3F00S00C0.03583
T4F00S00C0.04094
%
T01
X0102362Y0038386
X00919Y00851
X0091874Y0131
X0071653Y0147244
X00511Y01289
X0091732Y0168898
T02
X004874Y0043465
X003874Y0063465
X004874Y0083465
X002874
X0070866Y007874
X007874Y0063465
X010874Y0083465
Y0043465
X009874Y0103465
X007874
X005874
X003874
X002874Y0123465
X003874Y0143465
X004874Y0163465
X002874
X003874Y0183465
X009874
X010874Y0163465
X0102362Y0149606
X0082731Y014576
T03
X0031417Y0023622
X0041417
X0061929
X0071929
X0089488
X0099488
T04
X0016929Y0009055
Y0019055
Y0029055
Y0039055
Y0049055
Y0059055
Y0069055
Y0079055
Y0089055
X0116929
Y0079055
Y0069055
Y0059055
Y0049055
Y0039055
Y0029055
Y0019055
Y0009055
Y0099055
Y0109055
Y0119055
Y0129055
Y0139055
Y0149055
Y0159055
Y0169055
Y0179055
Y0189055
X0016929
Y0179055
Y0169055
Y0159055
Y0149055
Y0139055
Y0129055
Y0119055
Y0109055
Y0099055
M30
